<svg width="244" height="39" viewBox="0 0 244 39" fill="none" xmlns="http://www.w3.org/2000/svg">
    <path d="M118.011 30.3402V10.9021H131.458V14.7909H121.896V18.9275H130.323V22.8163H121.896V30.3432H118.011V30.3402Z" fill="#010101"/>
    <path d="M134.334 30.3401V10.0681H138.168V30.3401H134.334Z" fill="#010101"/>
    <path d="M146.266 30.618C144.82 30.618 143.692 30.1285 142.886 29.1465C142.078 28.1645 141.676 26.8138 141.676 25.0915V15.4556H145.509V23.759C145.509 24.741 145.711 25.4904 146.116 26.007C146.519 26.5268 147.092 26.7836 147.83 26.7836C148.569 26.7836 149.154 26.5237 149.584 26.007C150.014 25.4904 150.228 24.738 150.228 23.759V15.4556H154.062V30.34H150.228V28.231C149.102 29.8233 147.782 30.618 146.266 30.618Z" fill="#010101"/>
    <path d="M157.569 13.8179V10.0681H161.604V13.8179H157.569ZM157.67 30.3432V15.4587H161.504V30.3432H157.67Z" fill="#010101"/>
    <path d="M170.663 30.6181C168.982 30.6181 167.534 29.9232 166.323 28.5362C165.112 27.1463 164.505 25.2578 164.505 22.8707C164.505 20.4836 165.106 18.6253 166.307 17.2475C167.509 15.8696 168.961 15.1777 170.66 15.1777C172.359 15.1777 173.746 15.918 174.872 17.3986V10.0681H178.706V30.3401H174.872V28.2008C173.795 29.8114 172.392 30.6181 170.66 30.6181H170.663ZM169.299 25.8833C169.937 26.6507 170.721 27.0345 171.645 27.0345C172.569 27.0345 173.347 26.6507 173.978 25.8833C174.61 25.1158 174.924 24.1096 174.924 22.8707C174.924 21.6318 174.61 20.68 173.978 19.9125C173.347 19.1451 172.569 18.7613 171.645 18.7613C170.721 18.7613 169.937 19.1451 169.299 19.9125C168.659 20.68 168.342 21.6862 168.342 22.9251C168.342 24.164 168.662 25.1158 169.299 25.8833Z" fill="#010101"/>
    <path d="M181.685 23.7591V19.7041H189.457V23.7591H181.685Z" fill="#010101"/>
    <path d="M192.836 30.3402V10.9021H196.722V26.4544H205.527V30.3432H192.836V30.3402Z" fill="#010101"/>
    <path d="M208.126 13.8179V10.0681H212.164V13.8179H208.126ZM208.227 30.3432V15.4587H212.06V30.3432H208.227Z" fill="#010101"/>
    <path d="M215.669 30.3402V15.4557H219.502V17.5648C220.628 15.9724 221.949 15.1777 223.464 15.1777C224.98 15.1777 226.039 15.6672 226.844 16.6493C227.652 17.6313 228.055 18.9819 228.055 20.7043V30.3402H224.221V22.0368C224.221 21.0548 224.019 20.3054 223.614 19.7887C223.211 19.272 222.638 19.0122 221.9 19.0122C221.162 19.0122 220.576 19.272 220.146 19.7887C219.716 20.3084 219.502 21.0578 219.502 22.0368V30.3402H215.669Z" fill="#010101"/>
    <path d="M237.793 30.6726C235.741 30.6726 234.051 29.9565 232.721 28.5212C231.391 27.0859 230.726 25.2216 230.726 22.9252C230.726 20.7587 231.358 18.9276 232.617 17.4258C233.88 15.9271 235.475 15.1777 237.412 15.1777C239.547 15.1777 241.179 15.9543 242.307 17.5104C243.433 19.0666 243.997 20.9823 243.997 23.2575C243.997 23.4781 243.979 23.8498 243.945 24.3695H234.536C234.722 25.3122 235.1 26.0344 235.67 26.536C236.241 27.0346 236.967 27.2854 237.839 27.2854C239.035 27.2854 240.127 26.7777 241.118 25.7594L243.314 27.8987C241.95 29.751 240.108 30.6756 237.787 30.6756L237.793 30.6726ZM234.487 21.7316H240.264C240.145 20.7677 239.84 20.0002 239.343 19.4261C238.846 18.852 238.202 18.565 237.412 18.565C236.622 18.565 235.994 18.849 235.481 19.411C234.969 19.9761 234.637 20.7496 234.484 21.7286L234.487 21.7316Z" fill="#010101"/>
    <path d="M44.3562 0H33.4738V39H59.7282V30.3431H44.3562V0Z" fill="#3F80D0"/>
    <path d="M95.6022 5.76222C91.2011 1.92175 85.2841 0 77.8543 0H51.4077V8.72945H66.9719L77.8543 8.78988C81.5021 8.78988 84.485 9.64802 86.803 11.3613C89.3802 13.2709 90.6582 15.9723 90.6368 19.4683C90.6155 24.3089 88.6055 27.6055 84.607 29.3641C82.7495 30.1678 80.4986 30.5697 77.8543 30.5697V15.1987H66.9719V39H77.8543C84.4087 39 89.917 37.459 94.3731 34.3769C99.4422 30.8598 101.955 25.9768 101.913 19.7281C101.891 14.0626 99.7868 9.40931 95.6053 5.76222H95.6022Z" fill="#3F80D0"/>
    <path d="M0.0976 0H0V0.0211513V0.0423026V39H0.0976H10.98H11.0014V23.7952H26.2392H26.352H26.4496V15.1957H26.2392V15.235H11.0014V9.05578V8.75362H26.4496V0H0.13725H0.0976Z" fill="#3F80D0"/>
</svg>
