<svg width="11" height="10" viewBox="0 0 11 10" fill="none" xmlns="http://www.w3.org/2000/svg">
    <path fill-rule="evenodd" clip-rule="evenodd" d="M0.24375 0.244802C-0.08125 0.569802 -0.08125 1.0948 0.24375 1.4198L3.47708 4.65314L0.24375 7.88647C-0.08125 8.21147 -0.08125 8.73647 0.24375 9.06147C0.56875 9.38647 1.09375 9.38647 1.41875 9.06147L5.24375 5.23647C5.56875 4.91147 5.56875 4.38647 5.24375 4.06147L1.41875 0.236468C1.10208 -0.0801982 0.56875 -0.0801982 0.24375 0.244802Z" fill="#969696"/>
    <path fill-rule="evenodd" clip-rule="evenodd" d="M5.24375 0.244802C4.91875 0.569802 4.91875 1.0948 5.24375 1.4198L8.47708 4.65314L5.24375 7.88647C4.91875 8.21147 4.91875 8.73647 5.24375 9.06147C5.56875 9.38647 6.09375 9.38647 6.41875 9.06147L10.2438 5.23647C10.5688 4.91147 10.5688 4.38647 10.2438 4.06147L6.41875 0.236468C6.10208 -0.0801982 5.56875 -0.0801982 5.24375 0.244802Z" fill="#969696"/>
</svg>
