<svg width="244" height="39" viewBox="0 0 244 39" fill="none" xmlns="http://www.w3.org/2000/svg">
    <path d="M44.3562 0H33.4738V39H59.7282V30.3431H44.3562V0Z" fill="#3F80D0"/>
    <path d="M95.6022 5.76222C91.2011 1.92175 85.2841 0 77.8543 0H51.4077V8.72945H66.9719L77.8543 8.78988C81.5021 8.78988 84.485 9.64802 86.803 11.3613C89.3802 13.2709 90.6582 15.9723 90.6368 19.4683C90.6155 24.3089 88.6055 27.6055 84.607 29.3641C82.7495 30.1678 80.4986 30.5697 77.8543 30.5697V15.1987H66.9719V39H77.8543C84.4087 39 89.917 37.459 94.3731 34.3769C99.4422 30.8598 101.955 25.9768 101.913 19.7281C101.891 14.0626 99.7868 9.40931 95.6053 5.76222H95.6022Z" fill="#3F80D0"/>
    <path d="M0.0976 0H0V0.0211513V0.0423026V39H0.0976H10.98H11.0014V23.7952H26.2392H26.352H26.4496V15.1957H26.2392V15.235H11.0014V9.05578V8.75362H26.4496V0H0.13725H0.0976Z" fill="#3F80D0"/>
</svg>
